<svg width="125" height="19" viewBox="0 0 125 19" fill="none" xmlns="http://www.w3.org/2000/svg">
<path fill-rule="evenodd" clip-rule="evenodd" d="M42.4321 3.59211C42.4321 5.57591 44.1084 7.18421 46.1761 7.18421C48.2438 7.18421 49.9201 5.57591 49.9201 3.59211C49.9201 1.60831 48.2438 0 46.1761 0C44.1084 0 42.4321 1.60831 42.4321 3.59211" fill="#6050DC"/>
<path fill-rule="evenodd" clip-rule="evenodd" d="M32.9474 14.3684H39.437C39.7126 14.3684 39.9362 14.1539 39.9362 13.8895V0.478947C39.9362 0.214568 39.7126 0 39.437 0H32.9474C32.6719 0 32.4482 0.214568 32.4482 0.478947V13.8895C32.4482 14.1539 32.6719 14.3684 32.9474 14.3684" fill="#6050DC"/>
<mask id="mask0" mask-type="alpha" maskUnits="userSpaceOnUse" x="0" y="0" width="30" height="15">
<path fill-rule="evenodd" clip-rule="evenodd" d="M0 0H29.952V14.3684H0V0Z" fill="white"/>
</mask>
<g mask="url(#mask0)">
<path fill-rule="evenodd" clip-rule="evenodd" d="M14.976 7.18421C10.9949 7.18421 7.73887 4.20636 7.49825 0.447097C7.48203 0.195411 7.26438 0 7.0018 0H0.499469C0.220417 0 -0.00896574 0.219358 0.000269457 0.48709C0.26809 8.19695 6.87051 14.3684 14.976 14.3684C23.0815 14.3684 29.684 8.19695 29.9518 0.48709C29.961 0.219358 29.7316 0 29.4526 0H22.9502C22.6877 0 22.47 0.195411 22.4538 0.447097C22.2132 4.20636 18.9571 7.18421 14.976 7.18421" fill="#6050DC"/>
</g>
<path fill-rule="evenodd" clip-rule="evenodd" d="M63.3294 6.68084C63.8732 6.68084 64.3295 6.50794 64.6979 6.16262C65.0661 5.81706 65.2503 5.41378 65.2503 4.95303C65.2503 4.49229 65.0661 4.08925 64.6979 3.74345C64.3295 3.39789 63.8732 3.22523 63.3294 3.22523H60.928V6.68084H63.3294ZM63.3294 0C64.1136 0 64.8337 0.126682 65.4904 0.380045C66.1466 0.633408 66.7149 0.986871 67.1952 1.43972C67.6756 1.8928 68.0513 2.41892 68.3239 3.01785C68.5959 3.61677 68.7322 4.26191 68.7322 4.95303C68.7322 5.64416 68.5959 6.28906 68.3239 6.88822C68.0513 7.48715 67.6756 8.01327 67.1952 8.46635C66.7149 8.91944 66.1466 9.27266 65.4904 9.52602C64.8337 9.77939 64.1136 9.90631 63.3294 9.90631H60.928V14.5138H57.4463V0H63.3294Z" fill="#6050DC"/>
<path fill-rule="evenodd" clip-rule="evenodd" d="M75.5758 6.56595C74.9673 6.56595 74.4671 6.73885 74.075 7.08417C73.6826 7.42973 73.4228 7.83301 73.2947 8.29375H77.8569C77.7289 7.83301 77.4685 7.42973 77.0764 7.08417C76.6838 6.73885 76.1841 6.56595 75.5758 6.56595V6.56595ZM80.6182 11.4038C80.4742 11.8341 80.2581 12.2487 79.97 12.6479C79.6817 13.0475 79.3216 13.4046 78.8895 13.719C78.4572 14.0342 77.9567 14.2837 77.3889 14.4679C76.8203 14.6523 76.1761 14.7442 75.4558 14.7442C74.7032 14.7442 73.9948 14.6022 73.3307 14.3182C72.6662 14.0342 72.0822 13.6424 71.5777 13.1433C71.0735 12.6445 70.6732 12.0602 70.3771 11.3923C70.0809 10.7242 69.9331 9.99857 69.9331 9.21525C69.9331 8.43193 70.0809 7.70632 70.3771 7.03819C70.6732 6.3703 71.0773 5.78646 71.5897 5.2874C72.1019 4.78834 72.6982 4.39656 73.3788 4.1123C74.0587 3.82829 74.7913 3.68628 75.5758 3.68628C76.3279 3.68628 77.0322 3.81703 77.6889 4.07782C78.3451 4.33908 78.9172 4.71147 79.4059 5.19496C79.8936 5.67894 80.2783 6.26278 80.5581 6.94623C80.8381 7.62945 80.9784 8.38619 80.9784 9.21525C80.9784 9.33834 80.9704 9.45712 80.9544 9.5723C80.9385 9.68749 80.922 9.79908 80.9068 9.90637C80.8903 10.0295 80.8743 10.1446 80.8583 10.2522H73.2947C73.4228 10.6516 73.6826 11.0202 74.075 11.3578C74.4671 11.696 74.9673 11.8645 75.5758 11.8645C75.8796 11.8645 76.1399 11.8298 76.3561 11.7609C76.5722 11.6919 76.7439 11.6112 76.8725 11.5192C77.0322 11.4268 77.1605 11.3116 77.2566 11.1734L80.6182 11.4038Z" fill="#6050DC"/>
<path fill-rule="evenodd" clip-rule="evenodd" d="M90.3429 9.21524C90.3429 8.40127 90.1108 7.75613 89.6466 7.27982C89.1823 6.80422 88.614 6.56595 87.9418 6.56595C87.2696 6.56595 86.701 6.80422 86.237 7.27982C85.7723 7.75613 85.5406 8.40127 85.5406 9.21524C85.5406 10.0292 85.7723 10.6744 86.237 11.1504C86.701 11.6265 87.2696 11.8645 87.9418 11.8645C88.614 11.8645 89.1823 11.6265 89.6466 11.1504C90.1108 10.6744 90.3429 10.0292 90.3429 9.21524M82.2988 9.21524C82.2988 8.43192 82.4466 7.70608 82.7431 7.03795C83.0391 6.37006 83.4432 5.78646 83.9559 5.2874C84.4679 4.78833 85.0641 4.39655 85.7446 4.11206C86.4247 3.82828 87.157 3.68604 87.9418 3.68604C88.7258 3.68604 89.4581 3.82828 90.139 4.11206C90.8189 4.39655 91.4152 4.78833 91.9276 5.2874C92.4398 5.78646 92.8442 6.37006 93.1405 7.03795C93.4365 7.70608 93.5845 8.43192 93.5845 9.21524C93.5845 9.99856 93.4365 10.7242 93.1405 11.3923C92.8442 12.0602 92.4398 12.6443 91.9276 13.1431C91.4152 13.6422 90.8189 14.0339 90.139 14.3182C89.4581 14.602 88.7258 14.7442 87.9418 14.7442C87.157 14.7442 86.4247 14.602 85.7446 14.3182C85.0641 14.0339 84.4679 13.6422 83.9559 13.1431C83.4432 12.6443 83.0391 12.0602 82.7431 11.3923C82.4466 10.7242 82.2988 9.99856 82.2988 9.21524" fill="#6050DC"/>
<path fill-rule="evenodd" clip-rule="evenodd" d="M103.43 9.21529C103.43 8.46286 103.197 7.85245 102.733 7.3838C102.269 6.91539 101.701 6.68094 101.029 6.68094C100.356 6.68094 99.7878 6.91539 99.3237 7.3838C98.859 7.85245 98.6274 8.46286 98.6274 9.21529C98.6274 9.96796 98.859 10.5781 99.3237 11.0465C99.7878 11.5152 100.356 11.7494 101.029 11.7494C101.701 11.7494 102.269 11.5152 102.733 11.0465C103.197 10.5781 103.43 9.96796 103.43 9.21529M101.509 3.80127C102.197 3.80127 102.853 3.93585 103.478 4.2043C104.102 4.47323 104.65 4.84945 105.122 5.33342C105.594 5.81716 105.971 6.3895 106.251 7.04949C106.531 7.7102 106.671 8.43197 106.671 9.21529C106.671 9.99861 106.531 10.7204 106.251 11.3809C105.971 12.0416 105.594 12.6132 105.122 13.0969C104.65 13.5809 104.102 13.9573 103.478 14.226C102.853 14.4947 102.197 14.6291 101.509 14.6291C101.092 14.6291 100.712 14.5831 100.368 14.4909C100.024 14.3989 99.7318 14.2914 99.4917 14.1686C99.2034 14.0301 98.9548 13.8769 98.7472 13.7076V18.2001H95.5056V3.91646H97.9068L98.387 4.95314C98.6274 4.73833 98.9072 4.54651 99.2274 4.3772C99.4995 4.23903 99.8277 4.10875 100.212 3.98542C100.596 3.86281 101.029 3.80127 101.509 3.80127" fill="#6050DC"/>
<mask id="mask1" mask-type="alpha" maskUnits="userSpaceOnUse" x="0" y="0" width="125" height="19">
<path fill-rule="evenodd" clip-rule="evenodd" d="M0 18.2H124.8V0H0V18.2Z" fill="white"/>
</mask>
<g mask="url(#mask1)">
<path fill-rule="evenodd" clip-rule="evenodd" d="M108.593 14.5138H111.834V0H108.593V14.5138Z" fill="#6050DC"/>
<path fill-rule="evenodd" clip-rule="evenodd" d="M119.397 6.56595C118.789 6.56595 118.289 6.73885 117.897 7.08417C117.504 7.42973 117.244 7.83301 117.116 8.29375H121.679C121.55 7.83301 121.29 7.42973 120.898 7.08417C120.505 6.73885 120.006 6.56595 119.397 6.56595V6.56595ZM124.44 11.4038C124.296 11.8341 124.08 12.2487 123.791 12.6479C123.503 13.0475 123.143 13.4046 122.711 13.719C122.279 14.0342 121.778 14.2837 121.21 14.4679C120.642 14.6523 119.998 14.7442 119.277 14.7442C118.524 14.7442 117.816 14.6022 117.152 14.3182C116.488 14.0342 115.904 13.6424 115.399 13.1433C114.895 12.6445 114.495 12.0602 114.199 11.3923C113.902 10.7242 113.755 9.99857 113.755 9.21525C113.755 8.43193 113.902 7.70632 114.199 7.03819C114.495 6.3703 114.899 5.78646 115.411 5.2874C115.923 4.78834 116.52 4.39656 117.2 4.1123C117.881 3.82829 118.613 3.68628 119.397 3.68628C120.15 3.68628 120.854 3.81703 121.51 4.07782C122.167 4.33908 122.739 4.71147 123.227 5.19496C123.715 5.67894 124.1 6.26278 124.38 6.94623C124.66 7.62945 124.8 8.38619 124.8 9.21525C124.8 9.33834 124.792 9.45712 124.776 9.5723C124.76 9.68749 124.744 9.79908 124.728 9.90637C124.712 10.0295 124.696 10.1446 124.68 10.2522H117.116C117.244 10.6516 117.504 11.0202 117.897 11.3578C118.289 11.696 118.789 11.8645 119.397 11.8645C119.701 11.8645 119.962 11.8298 120.178 11.7609C120.394 11.6919 120.566 11.6112 120.694 11.5192C120.854 11.4268 120.982 11.3116 121.078 11.1734L124.44 11.4038Z" fill="#6050DC"/>
</g>
</svg>
